<svg width="20" height="21" viewBox="0 0 20 21" fill="none" xmlns="http://www.w3.org/2000/svg">
<path d="M16.25 3.625H3.75C2.71447 3.625 1.875 4.46447 1.875 5.5V16.75C1.875 17.7855 2.71447 18.625 3.75 18.625H16.25C17.2855 18.625 18.125 17.7855 18.125 16.75V5.5C18.125 4.46447 17.2855 3.625 16.25 3.625Z" stroke="#E21C5F" stroke-width="1.5" stroke-linejoin="round"/>
<path d="M11.5625 10.5C12.0803 10.5 12.5 10.0803 12.5 9.5625C12.5 9.04473 12.0803 8.625 11.5625 8.625C11.0447 8.625 10.625 9.04473 10.625 9.5625C10.625 10.0803 11.0447 10.5 11.5625 10.5Z" fill="#E21C5F"/>
<path d="M14.6875 10.5C15.2053 10.5 15.625 10.0803 15.625 9.5625C15.625 9.04473 15.2053 8.625 14.6875 8.625C14.1697 8.625 13.75 9.04473 13.75 9.5625C13.75 10.0803 14.1697 10.5 14.6875 10.5Z" fill="#E21C5F"/>
<path d="M11.5625 13.625C12.0803 13.625 12.5 13.2053 12.5 12.6875C12.5 12.1697 12.0803 11.75 11.5625 11.75C11.0447 11.75 10.625 12.1697 10.625 12.6875C10.625 13.2053 11.0447 13.625 11.5625 13.625Z" fill="#E21C5F"/>
<path d="M14.6875 13.625C15.2053 13.625 15.625 13.2053 15.625 12.6875C15.625 12.1697 15.2053 11.75 14.6875 11.75C14.1697 11.75 13.75 12.1697 13.75 12.6875C13.75 13.2053 14.1697 13.625 14.6875 13.625Z" fill="#E21C5F"/>
<path d="M5.3125 13.625C5.83027 13.625 6.25 13.2053 6.25 12.6875C6.25 12.1697 5.83027 11.75 5.3125 11.75C4.79473 11.75 4.375 12.1697 4.375 12.6875C4.375 13.2053 4.79473 13.625 5.3125 13.625Z" fill="#E21C5F"/>
<path d="M8.4375 13.625C8.95527 13.625 9.375 13.2053 9.375 12.6875C9.375 12.1697 8.95527 11.75 8.4375 11.75C7.91973 11.75 7.5 12.1697 7.5 12.6875C7.5 13.2053 7.91973 13.625 8.4375 13.625Z" fill="#E21C5F"/>
<path d="M5.3125 16.75C5.83027 16.75 6.25 16.3303 6.25 15.8125C6.25 15.2947 5.83027 14.875 5.3125 14.875C4.79473 14.875 4.375 15.2947 4.375 15.8125C4.375 16.3303 4.79473 16.75 5.3125 16.75Z" fill="#E21C5F"/>
<path d="M8.4375 16.75C8.95527 16.75 9.375 16.3303 9.375 15.8125C9.375 15.2947 8.95527 14.875 8.4375 14.875C7.91973 14.875 7.5 15.2947 7.5 15.8125C7.5 16.3303 7.91973 16.75 8.4375 16.75Z" fill="#E21C5F"/>
<path d="M11.5625 16.75C12.0803 16.75 12.5 16.3303 12.5 15.8125C12.5 15.2947 12.0803 14.875 11.5625 14.875C11.0447 14.875 10.625 15.2947 10.625 15.8125C10.625 16.3303 11.0447 16.75 11.5625 16.75Z" fill="#E21C5F"/>
<path d="M5 2.375V3.625M15 2.375V3.625" stroke="#E21C5F" stroke-width="1.5" stroke-linecap="round" stroke-linejoin="round"/>
<path d="M18.125 6.75H1.875" stroke="#E21C5F" stroke-width="1.5" stroke-linejoin="round"/>
</svg>
