<svg width="15" height="13" viewBox="0 0 15 13" fill="none" xmlns="http://www.w3.org/2000/svg">
<path d="M14.5 11C14.5 11.3315 14.3707 11.6495 14.1405 11.8839C13.9104 12.1183 13.5982 12.25 13.2727 12.25H2.22727C1.90178 12.25 1.58962 12.1183 1.35946 11.8839C1.1293 11.6495 1 11.3315 1 11V4.125C1 3.79348 1.1293 3.47554 1.35946 3.24112C1.58962 3.0067 1.90178 2.875 2.22727 2.875H4.68182L5.90909 1H9.59091L10.8182 2.875H13.2727C13.5982 2.875 13.9104 3.0067 14.1405 3.24112C14.3707 3.47554 14.5 3.79348 14.5 4.125V11Z" stroke="#F8F8F8" stroke-width="0.75" stroke-linecap="round" stroke-linejoin="round"/>
<path d="M7.75 9.24915C8.99264 9.24915 10 8.24179 10 6.99915C10 5.7565 8.99264 4.74915 7.75 4.74915C6.50736 4.74915 5.5 5.7565 5.5 6.99915C5.5 8.24179 6.50736 9.24915 7.75 9.24915Z" stroke="#F8F8F8" stroke-width="0.75" stroke-linecap="round" stroke-linejoin="round"/>
</svg>
