<svg width="19" height="18" viewBox="0 0 19 18" fill="none" xmlns="http://www.w3.org/2000/svg">
<path d="M6.59644 14.448C6.24956 14.448 5.96838 14.1668 5.96838 13.8199C5.96838 13.4729 6.24956 13.1917 6.59644 13.1917H12.249C12.5958 13.1917 12.877 13.4729 12.877 13.8199C12.877 14.1668 12.5958 14.448 12.249 14.448H6.59644Z" fill="#DF034D"/>
<path fill-rule="evenodd" clip-rule="evenodd" d="M12.3764 1.11273C10.6851 -0.370912 8.15122 -0.370909 6.45987 1.11273L0.507632 6.33406C-0.524141 7.23914 0.124467 8.92643 1.48715 8.92643C1.62528 8.92643 1.73167 9.04906 1.71302 9.1849C1.47072 10.9491 1.32097 12.1836 1.26984 13.3112C1.1565 15.8103 3.35349 17.589 5.70546 17.589H13.1809C15.5217 17.589 17.7223 15.8245 17.6088 13.3306C17.557 12.1927 17.3995 10.9547 17.1435 9.18019C17.1244 9.04708 17.2284 8.92643 17.3638 8.92643C18.7214 8.92643 19.3676 7.24539 18.3396 6.34367L12.3764 1.11273ZM7.28813 2.05729C8.50551 0.989383 10.3308 0.989383 11.5482 2.05729L17.5114 7.2882C17.6596 7.41821 17.5733 7.67007 17.3638 7.67007C16.4622 7.67007 15.772 8.47016 15.9003 9.35956C16.1564 11.1352 16.3053 12.3181 16.354 13.3877C16.4277 15.008 14.9743 16.3327 13.1809 16.3327H5.70546C3.90705 16.3327 2.45069 14.9992 2.52467 13.3681C2.57292 12.3041 2.71501 11.121 2.95746 9.35586C3.07961 8.46629 2.38798 7.67007 1.48715 7.67007C1.27254 7.67007 1.18388 7.41196 1.33588 7.27862L7.28813 2.05729Z" fill="#DF034D"/>
</svg>
