<svg width="17" height="17" viewBox="0 0 17 17" fill="none" xmlns="http://www.w3.org/2000/svg">
<path d="M6.1011 14.1791H7.33187C7.33187 15.0288 8.02066 15.7176 8.87033 15.7176C9.72 15.7176 10.4088 15.0288 10.4088 14.1791H11.6396C11.6396 15.7085 10.3997 16.9483 8.87033 16.9483C7.34093 16.9483 6.1011 15.7085 6.1011 14.1791ZM16.8703 12.6401V12.9489C16.8703 13.6305 16.3193 14.1791 15.6391 14.1791H2.10153C1.42151 14.1791 0.870331 13.6286 0.870331 12.9489V12.6401C0.870331 11.5562 1.67281 10.6593 2.71648 10.509V6.79427C2.71648 3.39484 5.47123 0.640656 8.87033 0.640656C12.2695 0.640656 15.0242 3.3955 15.0242 6.79427V10.5089C16.0693 10.6589 16.8703 11.5551 16.8703 12.6401ZM15.6396 12.6401C15.6396 12.1299 15.2269 11.7176 14.7136 11.7176C14.2052 11.7176 13.7934 11.3027 13.7934 10.7967V6.79427C13.7934 4.07522 11.5897 1.87142 8.87033 1.87142C6.15091 1.87142 3.94725 4.07463 3.94725 6.79427V10.7967C3.94725 11.3049 3.53333 11.7176 3.02701 11.7176C2.5155 11.7176 2.1011 12.1312 2.1011 12.6401V12.9484L15.6391 12.9483L15.6396 12.6401Z" fill="#0D0D0D"/>
</svg>
