<svg width="20" height="20" viewBox="0 0 20 20" fill="none" xmlns="http://www.w3.org/2000/svg">
<path d="M17.9338 5.57413L17.4941 4.81088C17.1614 4.23365 16.9951 3.94503 16.7122 3.82995C16.4292 3.71486 16.1092 3.80567 15.4691 3.9873L14.3819 4.29354C13.9732 4.38777 13.5445 4.33432 13.1714 4.14262L12.8712 3.96942C12.5513 3.7645 12.3052 3.46236 12.169 3.1072L11.8714 2.21851C11.6758 1.63042 11.5779 1.33637 11.345 1.16819C11.1122 1 10.8028 1 10.1841 1H9.19084C8.57215 1 8.2628 1 8.02991 1.16819C7.79702 1.33637 7.6992 1.63042 7.50355 2.21851L7.20599 3.1072C7.06977 3.46236 6.82367 3.7645 6.50372 3.96942L6.20355 4.14262C5.83044 4.33432 5.40173 4.38777 4.9931 4.29354L3.90584 3.9873C3.26579 3.80567 2.94576 3.71486 2.6628 3.82995C2.37983 3.94503 2.21352 4.23365 1.88091 4.81088L1.44111 5.57413C1.12934 6.1152 0.97345 6.38574 1.0037 6.67373C1.03396 6.96173 1.24265 7.19382 1.66003 7.65798L2.57871 8.68507C2.80325 8.96933 2.96266 9.4647 2.96266 9.91007C2.96266 10.3557 2.8033 10.851 2.57874 11.1353L1.66004 12.1624C1.24265 12.6265 1.03396 12.8586 1.00371 13.1466C0.97345 13.4346 1.12934 13.7052 1.44112 14.2462L1.8809 15.0094L1.8809 15.0095C2.21351 15.5867 2.37983 15.8753 2.6628 15.9904C2.94577 16.1055 3.2658 16.0147 3.90586 15.833L4.99306 15.5268C5.40176 15.4325 5.83055 15.486 6.20371 15.6778L6.50384 15.851C6.82372 16.0559 7.06976 16.358 7.20596 16.7131L7.50355 17.6019C7.6992 18.19 7.79702 18.4841 8.02991 18.6522C8.2628 18.8204 8.57215 18.8204 9.19084 18.8204H10.1841C10.8028 18.8204 11.1122 18.8204 11.345 18.6522C11.5779 18.4841 11.6758 18.19 11.8714 17.6019L12.169 16.7131C12.3052 16.358 12.5512 16.0559 12.8711 15.851L13.1712 15.6778C13.5444 15.486 13.9732 15.4325 14.3819 15.5268L15.4691 15.833C16.1092 16.0147 16.4292 16.1055 16.7122 15.9904C16.9951 15.8753 17.1615 15.5867 17.4941 15.0095L17.4941 15.0094L17.9338 14.2462C18.2456 13.7052 18.4015 13.4346 18.3713 13.1466C18.341 12.8586 18.1323 12.6265 17.7149 12.1624L16.7962 11.1353C16.5717 10.851 16.4123 10.3557 16.4123 9.91007C16.4123 9.4647 16.5717 8.96933 16.7962 8.68507L17.7149 7.65798C18.1323 7.19382 18.341 6.96173 18.3713 6.67373C18.4015 6.38574 18.2456 6.1152 17.9338 5.57413Z" stroke="white" stroke-width="2" stroke-linecap="round"/>
<path d="M12.7686 9.90324C12.7686 11.6256 11.3724 13.0218 9.65007 13.0218C7.92773 13.0218 6.53149 11.6256 6.53149 9.90324C6.53149 8.1809 7.92773 6.78467 9.65007 6.78467C11.3724 6.78467 12.7686 8.1809 12.7686 9.90324Z" stroke="white" stroke-width="2"/>
</svg>
