<svg width="12" height="8" viewBox="0 0 12 8" fill="none" xmlns="http://www.w3.org/2000/svg">
<path fill-rule="evenodd" clip-rule="evenodd" d="M10.542 0.903207C10.2042 0.697709 9.81664 0.676148 9.46225 0.843485L7.40216 1.81163V5.37606L9.46225 6.33887C9.81664 6.50639 10.2044 6.48483 10.542 6.27915C10.8743 6.07365 11.0627 5.74375 11.0627 5.35985V1.82804C11.0627 1.43861 10.8743 1.1087 10.542 0.903207Z" fill="#3B3B3B"/>
<path fill-rule="evenodd" clip-rule="evenodd" d="M5.24241 0H1.89215C0.917485 0 0.125488 0.778867 0.125488 1.72545V5.45741C0.125488 6.40934 0.917485 7.18286 1.89215 7.18286H5.24241C6.21707 7.18286 7.01434 6.40934 7.01434 5.45741V1.72545C7.01453 0.778867 6.21707 0 5.24241 0ZM2.12463 2.24998C1.79232 2.24998 1.52096 1.98495 1.52096 1.66039C1.52096 1.33048 1.79232 1.0708 2.12463 1.0708C2.45674 1.0708 2.72829 1.33048 2.72829 1.66039C2.72829 1.98495 2.45674 2.24998 2.12463 2.24998Z" fill="#3B3B3B"/>
</svg>
